<svg version="1.1" id="Layer_1" xmlns="http://www.w3.org/2000/svg" xmlns:xlink="http://www.w3.org/1999/xlink" x="0px" y="0px" viewBox="0 0 500 500" style="width: 151px;" xml:space="preserve" data-imageid="target-audience-81" imageName="Target Audience" class="illustrations_image">
<style type="text/css">
	.st0_target-audience-81{fill:#FFFFFF;}
	.st1_target-audience-81{fill:#093F68;}
	.st2_target-audience-81{fill:#70CC40;}
	.st3_target-audience-81{fill:#68E1FD;}
	.st4_target-audience-81{fill:#725858;}
	.st5_target-audience-81{fill:#FFC9B0;}
	.st6_target-audience-81{fill:#F56132;}
</style>
<g id="target_target-audience-81">
	<path class="st0_target-audience-81" d="M250.2,46.5C152.4,46.5,73,125.9,73,223.8C73,321.6,152.2,401,250.1,401c0,0,0.1,0,0.1,0&#10;&#9;&#9;c97.8,0,177.2-79.3,177.2-177.2S348,46.5,250.2,46.5z"/>
	<path class="st1_target-audience-81" d="M250.2,403C151.4,403,71,322.5,71,223.8S151.4,44.6,250.2,44.6S429.4,125,429.4,223.8S348.9,403,250.2,403z&#10;&#9;&#9; M250.2,48.6C153.6,48.6,75,127.2,75,223.8S153.6,399,250.2,399s175.2-78.6,175.2-175.2S346.8,48.5,250.2,48.6L250.2,48.6z"/>
	<path class="st2_target-audience-81" d="M250.2,75.2c-82,0-148.5,66.5-148.5,148.5s66.5,148.5,148.5,148.5s148.5-66.5,148.5-148.5l0,0&#10;&#9;&#9;C398.6,141.8,332.2,75.2,250.2,75.2z"/>
	<path class="st1_target-audience-81" d="M250.2,373.8c-82.7,0-150-67.3-150-150s67.3-150,150-150s149.9,67.3,150,150S332.9,373.8,250.2,373.8z&#10;&#9;&#9; M250.2,76.8c-81.1,0-147,65.9-147,147s65.9,147,147,147s147-65.9,147-147S331.2,76.8,250.2,76.8z"/>
	<path class="st1_target-audience-81" d="M250.2,374.2c-83,0-150.5-67.5-150.5-150.5S167.2,73.2,250.2,73.2s150.4,67.6,150.4,150.5&#10;&#9;&#9;S333.1,374.2,250.2,374.2z M250.2,77.2c-80.8,0-146.5,65.7-146.5,146.5s65.7,146.5,146.5,146.5s146.5-65.7,146.5-146.5&#10;&#9;&#9;S330.9,77.2,250.2,77.2z"/>
	<circle class="st0_target-audience-81" cx="250.2" cy="223.8" r="120.8"/>
	<path class="st1_target-audience-81" d="M250.2,346.5c-67.8,0-122.8-55-122.8-122.8s55-122.8,122.8-122.8S373,155.9,373,223.7v0&#10;&#9;&#9;C373,291.6,318,346.5,250.2,346.5z M250.2,104.9c-65.7-0.1-118.9,53.1-119,118.8s53.1,118.9,118.8,119&#10;&#9;&#9;c65.7,0.1,118.9-53.1,119-118.8c0,0,0-0.1,0-0.1l0,0C368.9,158.1,315.8,105,250.2,104.9L250.2,104.9z"/>
</g>
<g id="character-3_target-audience-81">
	<path class="st3_target-audience-81 targetColor" d="M379.5,269v36.7c-5.4,2.6-11.1,4.6-16.9,6.1c-7.2,1.8-14.6,2.7-22,2.6c-7.3,0-14.5-0.9-21.6-2.6&#10;&#9;&#9;c-5.8-1.4-11.5-3.4-16.9-6v-36.7c0-14.4,11.7-26.1,26.2-26.2h24.9c14.4-0.2,26.1,11.3,26.3,25.7C379.5,268.7,379.5,268.8,379.5,269&#10;&#9;&#9;L379.5,269z" style="fill: rgb(104, 225, 253);"/>
	<path class="st1_target-audience-81" d="M340.7,317c-13.7,0-27.2-3-39.6-8.9c-1-0.4-1.6-1.4-1.5-2.5v-36.8c0.1-15.9,13-28.8,28.9-28.9h24.9&#10;&#9;&#9;c16,0,28.9,13,28.9,28.9v36.7c0,1.1-0.6,2.1-1.5,2.5c-5.6,2.6-11.4,4.7-17.3,6.2C356.1,316.1,348.4,317,340.7,317z M305,304&#10;&#9;&#9;c4.7,2.1,9.7,3.8,14.7,5c13.9,3.3,28.4,3.3,42.2-0.1c5.1-1.2,10-2.9,14.8-5.1v-34.9c0-12.9-10.5-23.4-23.4-23.4h-24.9&#10;&#9;&#9;c-12.9,0-23.4,10.5-23.4,23.4V304z"/>
	<polygon class="st1_target-audience-81" points="334.6,245.3 341.7,279.4 347.8,245.3 &#9;"/>
	<path class="st1_target-audience-81" d="M341.7,282.1c-1.3,0-2.4-1-2.6-2.2L332,246c-0.3-1.5,0.7-3,2.2-3.3h13.7c0.8,0,1.6,0.4,2.1,1&#10;&#9;&#9;c0.5,0.6,0.7,1.4,0.6,2.2l-6.1,33.9C344.1,281.1,343,282.1,341.7,282.1L341.7,282.1z M338,248.1l3.5,16.8l3-16.8L338,248.1z"/>
	<path class="st4_target-audience-81" d="M337.5,136.3c1.6-0.3,3.2-0.4,4.9-0.4c7.6,0,15.2-0.1,22.1,3.2c14.2,7,23.3,21.5,23.3,37.4l-1.5,31h-90.6&#10;&#9;&#9;c-0.6-1.8,0.3-4,0.4-5.8c-0.1-2-0.3-4-0.8-6c-1.1-5.1-1.7-10.2-1.8-15.4c0.1-8.1,1.8-16.1,5-23.5c1.8-4.4,4-9.1,8-11.9&#10;&#9;&#9;s10.2-2.9,13,1.1C324.2,140.8,330.6,137.4,337.5,136.3z"/>
	<path class="st1_target-audience-81" d="M386.4,210.1h-90.6c-1.2,0-2.3-0.8-2.6-1.9c-0.4-1.6-0.4-3.4,0-5c0.1-0.6,0.1-1.1,0.3-1.7c0-1.4-0.2-2.7-0.5-4&#10;&#9;&#9;l-0.3-1.4c-1.1-5.2-1.8-10.5-1.9-15.8c0-8.5,1.8-16.9,5.1-24.6c1.9-4.7,4.3-9.8,8.9-13.1c4.1-2.9,10.4-3.6,14.5-0.6&#10;&#9;&#9;c5-4.4,11.1-7.4,17.7-8.4l0,0c1.8-0.3,3.6-0.4,5.4-0.4h1.4c7.3,0,15,0,22,3.5c15.2,7.5,24.9,22.9,24.9,39.9c0,0.1,0,0.1-1.5,31.1&#10;&#9;&#9;C389,209,387.8,210,386.4,210.1z M298.5,204.6h85.2c0.4-7.3,1.4-28.1,1.4-28.4c-0.1-14.8-8.5-28.2-21.7-34.8&#10;&#9;&#9;c-6-2.9-12.6-2.9-19.7-2.9h-1.4c-1.5,0-2.9,0.1-4.4,0.3l0,0c-6.4,1-12.2,4-16.6,8.7c-1,1.1-2.8,1.1-3.9,0.1&#10;&#9;&#9;c-0.1-0.1-0.3-0.3-0.3-0.4c-1.8-2.6-6.5-2.4-9.3-0.4c-3.3,2.4-5.3,6.6-7.1,10.7c-3.1,7.1-4.7,14.8-4.7,22.6c0.1,5,0.7,10,1.8,14.8&#10;&#9;&#9;l0.3,1.2c0.4,1.8,0.7,3.6,0.7,5.4c0,0.8-0.1,1.6-0.3,2.4C298.6,204.1,298.6,204.4,298.5,204.6L298.5,204.6z"/>
	<path class="st5_target-audience-81" d="M334.6,237.8h13.2v10.4c0,1.5-1.2,2.8-2.8,2.8c0,0,0,0,0,0h-7.5c-1.5,0-2.8-1.2-2.8-2.8L334.6,237.8&#10;&#9;&#9;L334.6,237.8z"/>
	<path class="st1_target-audience-81" d="M342.2,253.6h-1.9c-4.6,0-8.3-3.7-8.3-8.3v-7.6c0-1.5,1.2-2.8,2.8-2.8h13.1c1.5,0,2.8,1.2,2.8,2.8v7.6&#10;&#9;&#9;C350.6,249.9,346.9,253.6,342.2,253.6L342.2,253.6z M337.4,240.6v4.8c0,1.5,1.2,2.8,2.8,2.8h1.9c1.5,0,2.8-1.2,2.8-2.8v-4.8H337.4z&#10;&#9;&#9;"/>
	<ellipse class="st5_target-audience-81" cx="305.8" cy="203.6" rx="12" ry="10.9"/>
	<path class="st1_target-audience-81" d="M305.8,217.3c-8.2,0-14.8-6.1-14.8-13.7s6.6-13.7,14.8-13.7s14.8,6.1,14.8,13.7S314,217.3,305.8,217.3z&#10;&#9;&#9; M305.8,195.3c-5.1,0-9.3,3.7-9.3,8.3s4.1,8.3,9.3,8.3s9.3-3.7,9.3-8.3S311,195.3,305.8,195.3z"/>
	<ellipse class="st5_target-audience-81" cx="375.9" cy="203.6" rx="12" ry="10.9"/>
	<path class="st1_target-audience-81" d="M375.9,217.3c-8.2,0-14.8-6.1-14.8-13.7s6.6-13.7,14.8-13.7s14.8,6.1,14.8,13.7S384.1,217.3,375.9,217.3z&#10;&#9;&#9; M375.9,195.3c-5.1,0-9.3,3.7-9.3,8.3s4.1,8.3,9.3,8.3s9.3-3.7,9.3-8.3S381,195.3,375.9,195.3z"/>
	<path class="st5_target-audience-81" d="M341.1,239.5L341.1,239.5c-21.3,0-38.5-17.2-38.5-38.5l0,0v-20.8c0,0,9.7-5.5,12.6-14.3&#10;&#9;&#9;c0,0,14.8,16.9,29.1,15.6c11.9-1,23.7-2.6,35.5-5v24.2c0,21.3-17.2,38.6-38.5,38.6C341.2,239.5,341.2,239.5,341.1,239.5&#10;&#9;&#9;L341.1,239.5z"/>
	<path class="st1_target-audience-81" d="M341.1,242.2c-22.8-0.1-41.2-18.5-41.3-41.2v-20.8c0-1,0.5-1.9,1.4-2.4c0.1,0,8.9-5.1,11.4-12.7&#10;&#9;&#9;c0.3-1,1.1-1.7,2.1-1.8c1-0.2,1.9,0.1,2.6,0.8c0.1,0.1,14.1,15.8,26.9,14.8c11.7-1,23.4-2.6,35-4.8c1.5-0.3,2.9,0.7,3.2,2.1&#10;&#9;&#9;c0,0,0,0.1,0,0.1V201c0,22.7-18.4,41.2-41.1,41.2C341.2,242.3,341.2,242.3,341.1,242.2z M305.4,181.7V201c0,19.8,16,35.8,35.8,35.8&#10;&#9;&#9;c19.7,0,35.8-16,35.8-35.8v-20.9c-10.7,2-21.5,3.5-32.4,4.3c-11.6,1-23.3-8.6-28.4-13.7C313.5,175.1,309.8,178.9,305.4,181.7&#10;&#9;&#9;L305.4,181.7z"/>
	<path class="st1_target-audience-81" d="M341,210.1c-1.3,0-2.5-0.1-3.7-0.3c-1.5-0.1-2.7-1.4-2.6-2.9c0.1-1.5,1.4-2.7,2.9-2.6l0,0c0.3,0,0.6,0,0.8,0.1&#10;&#9;&#9;c1.1,0.2,2.1,0.3,3.2,0.3c-0.7-2.2-1.5-4.3-2.6-6.2c-0.5-1.4,0.2-2.9,1.6-3.4c0,0,0,0,0.1,0c1.2-0.4,2.4,0,3.2,1&#10;&#9;&#9;c3,5.7,4,9.8,3,11.9c-0.4,1-1.3,1.7-2.4,1.9C343.3,210,342.2,210.1,341,210.1z"/>
	<path class="st1_target-audience-81" d="M319.1,314.4c-1.5,0-2.8-1.2-2.8-2.8v-40.4c-0.1-1.5,1.1-2.8,2.6-2.9s2.8,1.1,2.9,2.6c0,0.1,0,0.2,0,0.3v40.4&#10;&#9;&#9;C321.9,313.1,320.7,314.4,319.1,314.4z"/>
	<path class="st1_target-audience-81" d="M362.6,314.4c-1.5,0-2.8-1.2-2.8-2.8v-40.4c0-1.5,1.2-2.8,2.8-2.8c1.5,0,2.8,1.2,2.8,2.8v40.4&#10;&#9;&#9;c0,1.5-1.1,2.7-2.6,2.8C362.7,314.4,362.6,314.4,362.6,314.4z"/>
</g>
<g id="character-2_target-audience-81">
	<path class="st4_target-audience-81" d="M236.7,148.4c0,0-8.7-3-17,7.8c-7.8,10.1-7.3,24.5-7.8,36.6c-0.5,12.1-2.7,24-6.6,35.4&#10;&#9;&#9;c-3.5,10.9,1.5,22.8,10.2,29.5c7.1,5.4,15.5,7.5,23.7,8c7.1,0.5,13.9-1.4,20.6-0.6c14.1,1.7,28.5-4,36.8-18.3c2-3,3.2-6.5,3.5-10.1&#10;&#9;&#9;c0-3.5-0.4-7-1.4-10.4c-2.8-12.2-4.3-24.6-4.4-37.1c0-10.1-1.9-20.2-6.6-28.9C277.3,140.5,248.9,131.6,236.7,148.4z"/>
	<path class="st1_target-audience-81" d="M242,268.3c-1,0-2,0-3-0.1c-10.4-0.8-18.6-3.6-25.2-8.6c-10.2-7.8-14.8-21.2-11.2-32.5&#10;&#9;&#9;c4.3-13.3,6.1-23.3,6.5-34.8l0.1-3.5c0.3-11.6,0.7-24.8,8.2-34.6c7.1-9.1,14.7-9.6,18.1-9c5.1-6.1,12.6-9,21.5-8.4&#10;&#9;&#9;c13.3,0.8,26.6,9.7,33.2,21.9c4.7,9.4,7.1,19.7,7.1,30.2c0.2,12.3,1.6,24.6,4.3,36.6l0.1,0.7c1,3.4,1.4,7,1.2,10.5&#10;&#9;&#9;c-0.4,4-1.8,7.8-3.9,11.2c-8,14-23.7,21.7-39.6,19.5c-3.4-0.3-6.8-0.2-10.1,0.3C247,268.1,244.5,268.3,242,268.3z M233.7,150.6&#10;&#9;&#9;c-2.6,0-7.2,1-11.9,7.1c-6.5,8.4-6.8,20.6-7.1,31.4l-0.1,3.5c-0.4,11.9-2.4,22.4-6.8,36.1c-2.9,9.1,0.8,20.1,9.3,26.4&#10;&#9;&#9;c5.7,4.3,13,6.8,22.3,7.5c3.2,0.1,6.4,0,9.6-0.3c3.7-0.5,7.5-0.5,11.2-0.1c13.8,1.9,27.3-4.8,34.2-16.9c1.7-2.7,2.8-5.7,3.2-8.9&#10;&#9;&#9;c0-3-0.3-6-1.1-8.9l-0.1-0.8c-2.8-12.4-4.3-25-4.4-37.7c0-10.5-2.2-20.1-6.4-27.7c-5.7-10.5-17.5-18.3-28.8-19.1&#10;&#9;&#9;c-5.3-0.3-12.7,0.7-17.7,7.6c-0.7,1-1.9,1.4-3.1,1C235.2,150.7,234.4,150.7,233.7,150.6L233.7,150.6z"/>
	<path class="st3_target-audience-81 targetColor" d="M291,271.5v37c-24.8,11.8-53.5,11.7-78.2-0.3v-36.7c0-14.6,11.8-26.5,26.4-26.5c0,0,0,0,0.1,0h25.3&#10;&#9;&#9;c9.3,0,17.9,4.8,22.7,12.7C289.8,261.9,291.1,266.6,291,271.5z" style="fill: rgb(104, 225, 253);"/>
	<path class="st1_target-audience-81" d="M252.2,319.9c-7.8,0-15.5-1-23-2.9c-6-1.6-11.9-3.7-17.6-6.4c-1-0.4-1.6-1.4-1.5-2.5v-36.8&#10;&#9;&#9;c0-16.1,13-29.2,29-29.2c0.1,0,0.1,0,0.2,0h25.3c16.1,0,29.2,13,29.2,29.1c0,0.1,0,0.1,0,0.2l0,0v37.1c0,1.1-0.6,2.1-1.5,2.5&#10;&#9;&#9;C279.8,316.9,266.1,319.9,252.2,319.9L252.2,319.9z M215.6,306.5c4.8,2.2,9.8,4,14.9,5.3c14,3.6,28.7,3.6,42.8,0.1&#10;&#9;&#9;c5.1-1.3,10.2-3,15-5.1v-35.3c0-13.1-10.6-23.7-23.6-23.7c0,0,0,0,0,0h-25.4c-13.1,0-23.7,10.6-23.7,23.7c0,0,0,0,0,0V306.5z"/>
	<polygon class="st1_target-audience-81" points="252,283.1 247.3,247.2 259.3,247.2 &#9;"/>
	<path class="st1_target-audience-81" d="M252,285.9L252,285.9c-1.4,0-2.6-1-2.8-2.4l-4.7-36c-0.1-1.5,1-2.8,2.5-3h12.3c1.5,0,2.8,1.2,2.8,2.8v0.4&#10;&#9;&#9;l-7.3,36C254.4,284.9,253.3,285.8,252,285.9z M250.3,249.9l2.2,16.6l3.4-16.6L250.3,249.9z"/>
	<path class="st1_target-audience-81" d="M229.8,317.2c-1.5,0-2.8-1.2-2.8-2.8v-40.7c0-1.5,1.2-2.8,2.8-2.8c1.5,0,2.8,1.2,2.8,2.8v40.7&#10;&#9;&#9;C232.6,315.9,231.3,317.2,229.8,317.2z"/>
	<path class="st1_target-audience-81" d="M274,317.3c-1.5,0-2.8-1.2-2.8-2.8v-40.8c0-1.5,1.2-2.8,2.8-2.8c1.5,0,2.8,1.2,2.8,2.8v40.8&#10;&#9;&#9;C276.8,316,275.5,317.3,274,317.3z"/>
	<path class="st5_target-audience-81" d="M247.3,241.1h12.2v9.6c0,1.5-1.2,2.6-2.6,2.6c0,0,0,0,0,0h-6.9c-1.5,0-2.6-1.2-2.6-2.6l0,0V241.1z"/>
	<path class="st1_target-audience-81" d="M254.2,256h-1.8c-4.3-0.1-7.8-3.6-7.9-7.9v-6.9c0-1.5,1.2-2.8,2.8-2.8h12.1c1.5,0,2.8,1.2,2.8,2.8l0,0v6.9&#10;&#9;&#9;C262.1,252.5,258.6,256,254.2,256C254.2,256,254.2,256,254.2,256L254.2,256z M249.9,243.9v4.1c0,1.3,1,2.3,2.3,2.4c0,0,0,0,0.1,0&#10;&#9;&#9;h1.8c1.3,0,2.3-1,2.4-2.3c0,0,0,0,0,0l0,0v-4.1H249.9z"/>
	<ellipse class="st5_target-audience-81" cx="218.6" cy="209.6" rx="11.8" ry="10.1"/>
	<path class="st1_target-audience-81" d="M218.6,222.6c-8,0-14.5-5.8-14.5-12.9s6.5-12.9,14.5-12.9s14.5,5.8,14.5,12.9S226.6,222.6,218.6,222.6z&#10;&#9;&#9; M218.6,202.4c-5,0-9,3.3-9,7.3s4,7.5,9,7.5s9-3.3,9-7.5S223.6,202.2,218.6,202.4z"/>
	<ellipse class="st5_target-audience-81" cx="287.3" cy="209.6" rx="11.8" ry="10.1"/>
	<path class="st1_target-audience-81" d="M287.3,222.6c-8,0-14.5-5.8-14.5-12.9s6.5-12.9,14.5-12.9s14.5,5.8,14.5,12.9S295.2,222.6,287.3,222.6z&#10;&#9;&#9; M287.3,202.4c-5,0-9,3.3-9,7.3s4,7.5,9,7.5s9-3.3,9-7.5S292.3,202.2,287.3,202.4z"/>
	<path class="st5_target-audience-81" d="M274.8,179.5l-11.5-14.8c0,0-2.6,9.1-4.2,14.7H241l-4.3-13.2l-5,13.2h-14v28c0,19.6,15.9,35.4,35.4,35.4&#10;&#9;&#9;c0,0,0,0,0,0l0,0c19.6,0,35.4-15.8,35.4-35.4c0,0,0,0,0,0v-27.7L274.8,179.5z"/>
	<path class="st1_target-audience-81" d="M253.2,245.4c-21.1,0-38.2-17.1-38.2-38.2v-27.8c0-1.5,1.2-2.8,2.8-2.8H230l4.3-11.4c0.4-1.1,1.5-1.8,2.6-1.8&#10;&#9;&#9;c1.2,0,2.2,0.8,2.5,1.9l3.6,11.2h14c1.5-5.5,3.6-12.7,3.6-12.7c0.4-1.4,1.8-2.3,3.3-1.9c0.6,0.1,1.1,0.5,1.4,0.9l10.7,13.7h12.6&#10;&#9;&#9;c1.5,0,2.8,1.2,2.8,2.8v27.6c0.3,21-16.5,38.2-37.5,38.5C253.6,245.4,253.5,245.4,253.2,245.4L253.2,245.4z M220.5,182.2v25.1&#10;&#9;&#9;c0.3,18.1,15.2,32.5,33.3,32.2c17.6-0.3,31.9-14.5,32.2-32.2v-24.8h-11.2c-0.9,0-1.7-0.4-2.2-1.1l-8.2-10.5&#10;&#9;&#9;c-0.8,2.9-1.9,6.6-2.6,9.6c-0.3,1.2-1.4,2-2.6,1.9H241c-1.2,0-2.2-0.8-2.6-1.9l-1.9-5.8l-2.2,5.8c-0.4,1.1-1.5,1.8-2.6,1.8H220.5&#10;&#9;&#9;L220.5,182.2z"/>
	<path class="st1_target-audience-81" d="M253.1,215.8c-1.2,0-2.3-0.1-3.5-0.3c-1.4-0.3-2.2-1.8-1.9-3.1c0-0.1,0.1-0.2,0.1-0.3c0.4-1.3,1.6-2.1,2.9-1.9&#10;&#9;&#9;c0.9,0.2,1.8,0.2,2.6,0.1c-0.6-1.9-1.4-3.7-2.4-5.4c-0.5-1.5,0.2-3,1.7-3.6c1.2-0.4,2.5,0,3.2,1c2.8,5.4,3.7,9.1,2.8,11.2&#10;&#9;&#9;c-0.4,1-1.3,1.7-2.4,1.9C255.2,215.7,254.2,215.8,253.1,215.8z"/>
</g>
<g id="character-1_target-audience-81">
	<path class="st3_target-audience-81 targetColor" d="M196.8,269.3V306c-12.1,5.9-25.3,8.8-38.8,8.7c-7.3,0-14.5-0.9-21.6-2.6c-5.8-1.4-11.5-3.4-16.9-6v-36.7&#10;&#9;&#9;c0-14.4,11.7-26.1,26.2-26.2h24.9c14.3-0.1,26,11.4,26.2,25.7C196.8,269.1,196.8,269.2,196.8,269.3L196.8,269.3z" style="fill: rgb(104, 225, 253);"/>
	<path class="st1_target-audience-81" d="M158.1,317.4c-13.7,0-27.2-3-39.6-8.9c-1-0.4-1.6-1.4-1.5-2.5v-36.8c0.1-15.9,13-28.8,28.9-28.9h24.9&#10;&#9;&#9;c16,0,28.9,12.9,28.9,28.9c0,0,0,0,0,0v36.7c0.1,1.1-0.6,2-1.5,2.5c-5.6,2.6-11.4,4.7-17.3,6.2&#10;&#9;&#9;C173.4,316.4,165.7,317.3,158.1,317.4z M122.3,304.4c4.7,2.1,9.7,3.8,14.7,5c13.9,3.4,28.4,3.3,42.2-0.1c5.1-1.2,10.1-2.9,14.8-5.1&#10;&#9;&#9;v-34.9c0-12.9-10.5-23.4-23.4-23.4h-24.9c-12.9,0-23.4,10.5-23.4,23.4L122.3,304.4z"/>
	<path class="st4_target-audience-81" d="M155.6,132.5c2.7,1.3,4.8,3.6,6,6.4c2-2.7,5.2-4.3,8.6-4.2c2,0,4,0.6,5.7,1.7c1.7,1,2.5,3,4.1,3.9&#10;&#9;&#9;s3.2,0.3,5,0.3c2.6,0,5.3,0.4,7.8,1.2c2.5,0.7,5.1,1.7,6.6,3.7c1.8,2.4,1.7,5.4,1.4,8.2c8.7-3,11.2,10.2,6.9,15.4&#10;&#9;&#9;c5.1,5.5,3.7,15.5-2.6,19.5c2.4,1.9,1.5,5.7,0.6,8.6c-2.1,5.4-2.4,10.4-8.6,10.8c-3.3,0.3-6.6,0-10,0h-74c1.2,0-3.6-7.5-3.7-7.9&#10;&#9;&#9;c-1.5-3.5-1.6-7.4-0.1-10.9c-5.8-4.3-5.7-14.3,0.1-18.6c-3.3-7.6,0.2-16.4,7.7-19.7c0,0,0,0,0,0c-0.7-4.8,3.1-9.6,7.6-11.4&#10;&#9;&#9;c4.8-1.9,9.7-1.1,14.7-1c1.2-4.6,6.9-7.5,11.4-7.2C152.4,131.3,154.1,131.7,155.6,132.5z"/>
	<path class="st1_target-audience-81" d="M193.6,210.6c-1.2,0-2.3,0-3.5-0.1c-1.1-0.1-2.1-0.1-3.2,0h-73.9c-1.5,0-2.8-1.2-2.8-2.8v-0.6&#10;&#9;&#9;c-0.9-1.8-1.8-3.6-2.9-5.3c-0.3-0.3-0.5-0.7-0.6-1.1c-1.5-3.5-1.8-7.5-0.8-11.2c-5.1-5.8-5.1-14.4,0-20.2c-2.4-7.9,1-16.4,8.2-20.5&#10;&#9;&#9;c0.3-5.7,4.6-10.2,9.4-12.2c4.4-1.8,8.9-1.5,13-1.4l1,0.1c2.5-4.7,8.4-7.3,13.3-7.1c2.1,0.2,4.1,0.7,6,1.5c2.1,1,3.9,2.5,5.3,4.3&#10;&#9;&#9;c2.4-1.7,5.2-2.6,8.2-2.5c2.5,0.1,4.9,0.8,7.1,2.1c1,0.7,1.9,1.5,2.6,2.5c0.4,0.5,0.8,1,1.2,1.4c0.6,0.2,1.2,0.2,1.8,0&#10;&#9;&#9;c0.6-0.1,1.2-0.2,1.8-0.1c3,0,5.9,0.5,8.7,1.4c2.8,0.8,5.9,1.9,8,4.7c1.4,1.9,2.2,4.3,2.1,6.6c2.6,0.2,5,1.6,6.4,3.9&#10;&#9;&#9;c2.7,4.4,3.1,9.9,0.8,14.5c2.1,3.2,2.9,7,2.4,10.8c-0.5,3.6-2.1,6.9-4.6,9.4c1,2.2,0.7,5.3-0.7,9c-0.3,0.8-0.6,1.8-0.8,2.6&#10;&#9;&#9;c-1.4,4.4-3,9.6-10,10.1C195.9,210.5,194.8,210.5,193.6,210.6z M115.6,204.9h71.6c1.1,0,2.2,0,3.3,0.1c2.2,0,4.3,0.1,6.4,0&#10;&#9;&#9;c3.2-0.3,3.7-1.8,5.3-6.2c0.3-0.9,0.6-1.9,1-2.8c1-2.8,1.1-4.8,0.4-5.4c-1.2-0.9-1.4-2.6-0.5-3.8c0,0,0.1-0.1,0.1-0.1&#10;&#9;&#9;c0.2-0.3,0.4-0.5,0.7-0.6c4.7-3.4,5.8-10.1,2.4-14.8c-0.1-0.1-0.3-0.4-0.4-0.6c-0.9-1-1-2.5-0.1-3.6c1.8-2.2,1.8-7.2,0-9.8&#10;&#9;&#9;c-0.8-1.4-2.5-1.9-4-1.2c-0.9,0.3-1.9,0.1-2.6-0.4c-0.7-0.6-1.1-1.5-1-2.5c0.3-2.2,0.4-4.4-0.8-6.1s-3.3-2.2-5.3-2.8&#10;&#9;&#9;c-2.2-0.7-4.6-1.1-6.9-1.1c-0.4,0-0.8,0-1.2,0.1c-1.7,0.4-3.5,0.1-5.1-0.7c-1.1-0.7-2.1-1.6-2.9-2.6c-0.4-0.5-0.9-1-1.4-1.4&#10;&#9;&#9;c-1.3-0.7-2.8-1.1-4.3-1.2c-2.5-0.1-4.8,1-6.2,3.1c-0.9,1.2-2.6,1.5-3.9,0.7c-0.4-0.3-0.8-0.7-1-1.2c-0.9-2.1-2.5-3.9-4.6-4.9l0,0&#10;&#9;&#9;c-1.1-0.6-2.3-0.9-3.6-1c-3.3-0.1-7.8,2.1-8.6,5.3c-0.3,1.2-1.5,2.1-2.8,2.1c-1,0-2.1-0.1-3-0.1c-3.7-0.3-7.2-0.4-10.5,1&#10;&#9;&#9;s-6.5,4.7-6,8.4c0.2,1.2-0.5,2.4-1.7,2.9c-6.1,2.7-8.8,9.7-6.1,15.8c0.6,1.2,0.2,2.7-0.8,3.5c-3.9,3.3-4.4,9.2-1.2,13.1&#10;&#9;&#9;c0.3,0.4,0.6,0.7,1,1c1,0.8,1.3,2.2,0.8,3.3c-1.1,2.8-1.1,6,0.1,8.7l0.3,0.4C113.5,201.2,114.7,203.1,115.6,204.9L115.6,204.9z"/>
	<path class="st5_target-audience-81" d="M152,238.2h13.2v10.4c0,1.5-1.2,2.8-2.8,2.8h-7.5c-1.5,0-2.8-1.2-2.8-2.8L152,238.2z"/>
	<path class="st1_target-audience-81" d="M159.6,254h-1.9c-4.6,0-8.3-3.7-8.3-8.3V238c0-1.5,1.2-2.8,2.8-2.8h13.1c1.5,0,2.8,1.2,2.8,2.8v7.6&#10;&#9;&#9;c0,4.6-3.7,8.3-8.2,8.3C159.7,253.9,159.6,253.9,159.6,254L159.6,254z M154.7,241v4.9c0,1.6,1.2,2.8,2.8,2.9h1.9&#10;&#9;&#9;c1.5,0,2.8-1.2,2.8-2.8v-4.9h-7.5L154.7,241z"/>
	<ellipse class="st5_target-audience-81" cx="123.2" cy="204" rx="12.1" ry="10.9"/>
	<path class="st1_target-audience-81" d="M123.2,217.7c-8.2,0-14.8-6.1-14.8-13.7s6.6-13.7,14.8-13.7S138,196.4,138,204S131.3,217.7,123.2,217.7z&#10;&#9;&#9; M123.2,195.7c-5.1,0-9.3,3.7-9.3,8.3s4.2,8.3,9.3,8.3c5.1,0,9.3-3.7,9.3-8.3S128.3,195.7,123.2,195.7z"/>
	<ellipse class="st5_target-audience-81" cx="193.2" cy="204" rx="12.1" ry="10.9"/>
	<path class="st1_target-audience-81" d="M193.2,217.7c-8.2,0-14.8-6.1-14.8-13.7s6.6-13.7,14.8-13.7S208,196.4,208,204S201.4,217.7,193.2,217.7z&#10;&#9;&#9; M193.2,195.7c-5.1,0-9.3,3.7-9.3,8.3s4.1,8.3,9.3,8.3s9.3-3.7,9.3-8.3S198.4,195.7,193.2,195.7z"/>
	<path class="st5_target-audience-81" d="M158.6,239.8c-17.9,0-33.5-12.3-37.5-29.8c-1.7-7.1-1-13.4-0.3-20.6c0-1.4,0.3-2.8,1-4c-0.4,0.7,8-1.1,8.9-1.5&#10;&#9;&#9;c3.4-1.9,5.6-5.3,6-9.1c2.4,2.2,6.2,2.2,9.1,0.6c2.7-1.8,5-4.3,6.4-7.2c1.2,3.8,4.3,6.6,8.2,7.3c3.8,0.7,7.7-0.7,10.2-3.6&#10;&#9;&#9;c-0.1,4.3,2.9,7.3,7.3,7.8c3.3,0.3,6.5-1.3,8.4-4c0.2,5.1,4.6,9.1,9.7,8.9c0,0,0,0,0,0c0.6,0,1.1-0.1,1.7-0.3&#10;&#9;&#9;c0.3,3.1,0.5,6.2,0.4,9.3c-0.1,2.6-1,5.3-1,7.9C197.1,222.6,179.9,239.9,158.6,239.8L158.6,239.8z"/>
	<path class="st1_target-audience-81" d="M158.6,242.6c-19.2,0-35.8-13.3-40.2-32c-1.7-7.2-1.1-13.7-0.4-20.6l0.1-1c0-1.7,0.4-3.5,1.2-5l0,0&#10;&#9;&#9;c0.7-1.1,2.1-1.6,3.3-1.2c2.3-0.3,4.6-0.8,6.8-1.5c2.5-1.4,4.1-3.9,4.3-6.8c0.2-1.5,1.5-2.6,3.1-2.5c0.6,0,1.2,0.2,1.7,0.7&#10;&#9;&#9;c1.4,1.4,4,1.1,5.8,0.1c2.3-1.6,4.2-3.7,5.4-6.2c0.5-0.9,1.6-1.5,2.6-1.4c1.1,0.1,2,0.9,2.4,1.9c0.9,2.8,3.2,5,6.1,5.5&#10;&#9;&#9;c2.9,0.5,5.8-0.6,7.8-2.8c1.1-1,2.8-1,3.9,0c0.5,0.5,0.8,1.2,0.8,1.9c-0.1,2.6,1.8,4.6,4.9,4.9c2.3,0.2,4.6-0.9,6-2.8&#10;&#9;&#9;c0.9-1.2,2.6-1.5,3.9-0.7c0.7,0.5,1.1,1.2,1.1,2.1c0.2,3.6,3.3,6.4,6.9,6.2c0.4,0,0.8-0.1,1.1-0.1c1.5-0.3,3,0.6,3.3,2.1v0.4&#10;&#9;&#9;c0,1.1,0.1,2.1,0.3,3.2c0.2,2.1,0.3,4.2,0.3,6.4c-0.1,1.2-0.3,2.3-0.6,3.5c-0.3,1.4-0.4,2.8-0.4,4.2&#10;&#9;&#9;C200.1,223.9,181.5,242.6,158.6,242.6z M123.6,188.2c-0.1,0.5-0.2,0.9-0.1,1.4l-0.1,1c-0.6,6.8-1.1,12.5,0.3,18.8&#10;&#9;&#9;c4.6,19.2,23.9,31.1,43.1,26.5c16-3.8,27.4-18.1,27.5-34.5c0-1.7,0.2-3.4,0.6-5.1c0.1-1,0.3-1.9,0.4-3.1c0.1-1.8,0-3.6-0.1-5.4&#10;&#9;&#9;v-0.7c-4.4-0.1-8.3-2.6-10.4-6.5c-2.2,1.4-4.8,2-7.3,1.7c-3.8-0.2-7.1-2.4-8.9-5.7c-2.8,1.5-6,2.1-9.1,1.5c-3-0.7-5.8-2.3-7.8-4.7&#10;&#9;&#9;c-1.3,1.8-3,3.3-4.9,4.4c-2.6,1.5-5.7,1.9-8.6,1.1c-1.2,3.1-3.5,5.7-6.4,7.3C129.1,187.3,126.4,187.9,123.6,188.2L123.6,188.2z"/>
	<path class="st1_target-audience-81" d="M158.3,210.5c-1.3,0-2.5-0.1-3.7-0.3c-1.5-0.1-2.7-1.4-2.6-2.9c0.1-1.5,1.4-2.7,2.9-2.6l0,0&#10;&#9;&#9;c0.3,0,0.6,0,0.8,0.1c1.1,0.2,2.1,0.2,3.2,0.3c-0.7-2.2-1.5-4.3-2.6-6.2c-0.9-1.3-0.6-3,0.7-3.9s3-0.6,3.9,0.7&#10;&#9;&#9;c0.1,0.3,0.3,0.4,0.4,0.7c3,5.7,4,9.8,3,11.9c-0.4,1-1.3,1.7-2.4,1.9C160.6,210.3,159.4,210.5,158.3,210.5z"/>
	<path class="st1_target-audience-81" d="M136.4,314.7c-1.5,0-2.8-1.2-2.8-2.8v-40.4c-0.1-1.5,1.1-2.8,2.6-2.9s2.8,1.1,2.9,2.6c0,0.1,0,0.2,0,0.3V312&#10;&#9;&#9;C139.2,313.5,138,314.7,136.4,314.7z"/>
	<path class="st1_target-audience-81" d="M180.1,314.7c-1.5,0-2.7-1.2-2.8-2.7v-40.5c0-1.5,1.2-2.8,2.8-2.8c1.5,0,2.8,1.2,2.8,2.8c0,0,0,0,0,0V312&#10;&#9;&#9;C182.8,313.5,181.6,314.7,180.1,314.7z"/>
</g>
<g id="arrow_target-audience-81">
	<path class="st1_target-audience-81" d="M259.9,142.2c-1,0-1.9-0.8-1.9-1.9c0-0.1,0-0.2,0-0.2c0-0.4,0.2-0.8,0.4-1.2l83.2-98.6c0.7-0.8,2-1,2.8-0.2&#10;&#9;&#9;c0.7,0.5,0.9,1.4,0.6,2.2c-0.1,0.2-0.3,0.4-0.5,0.5l-83.1,98.7C261.1,142,260.5,142.2,259.9,142.2z"/>
	<polygon class="st3_target-audience-81 targetColor" points="304,88 297.7,63.7 330.3,22.4 337.9,47.8 &#9;" style="fill: rgb(104, 225, 253);"/>
	<path class="st1_target-audience-81" d="M304,89.9c-0.1,0-0.3,0-0.4-0.1c-0.7-0.2-1.3-0.7-1.5-1.4l-6.2-24.3c-0.2-0.6,0-1.2,0.4-1.7l32.6-41.2&#10;&#9;&#9;c0.7-0.9,1.9-1,2.8-0.3c0.3,0.2,0.5,0.5,0.6,0.9l7.5,25.4c0.2,0.6,0,1.3-0.4,1.8l-33.9,40.2C305.1,89.7,304.6,90,304,89.9z&#10;&#9;&#9; M299.9,64.1l5,19.6l30.7-36.4l-6.1-20.7L299.9,64.1z"/>
	<polygon class="st3_target-audience-81 targetColor" points="304,88 332.1,89.1 361.8,53 337.9,47.8 &#9;" style="fill: rgb(104, 225, 253);"/>
	<path class="st1_target-audience-81" d="M332.1,91L332.1,91l-28.2-1.1c-0.8,0-1.4-0.5-1.7-1.2c-0.3-0.7-0.2-1.5,0.3-2.1l33.8-40.1&#10;&#9;&#9;c0.5-0.6,1.2-0.8,1.9-0.7l23.9,5.2c1.1,0.2,1.7,1.3,1.5,2.4c0,0,0,0,0,0c-0.1,0.3-0.2,0.6-0.4,0.8l-29.7,36.1&#10;&#9;&#9;C333.2,90.8,332.7,91,332.1,91z M308.1,86.1l23.1,0.9l27-32.8L338.6,50L308.1,86.1z"/>
</g>
<g id="magnet_target-audience-81">
	<path class="st6_target-audience-81" d="M250,486.4c-43.9,0-79.6-35.7-79.6-79.6v-60.2h49v60.2c0,16.9,13.7,30.6,30.6,30.6c16.9,0,30.6-13.7,30.6-30.6&#10;&#9;&#9;v-60.2h49v60.2C329.6,450.7,293.9,486.4,250,486.4z"/>
	<path class="st1_target-audience-81" d="M250,487.9c-44.8,0-81.1-36.3-81.1-81.1V345h52v61.8c0,16.1,13.1,29.1,29.1,29.1c16.1,0,29.1-13,29.1-29.1V345&#10;&#9;&#9;h52v61.8C331.1,451.6,294.8,487.9,250,487.9z M171.9,348v58.8c0,43.1,35,78.1,78.1,78.1c43.1,0,78.1-35,78.1-78.1V348h-46v58.8&#10;&#9;&#9;c0,17.7-14.4,32.1-32.1,32.1s-32.1-14.4-32.1-32.1V348H171.9z"/>
	<rect x="170.4" y="337.2" class="st0_target-audience-81" width="49" height="26"/>
	<path class="st1_target-audience-81" d="M220.9,364.8h-52v-29h52V364.8z M171.9,361.8h46v-23h-46V361.8z"/>
	<rect x="280.6" y="337.2" class="st0_target-audience-81" width="49" height="26"/>
	<path class="st1_target-audience-81" d="M331.1,364.8h-52v-29h52V364.8z M282.1,361.8h46v-23h-46V361.8z"/>
</g>
</svg>